<mxfile host="65bd71144e">
    <diagram id="7ZwBStHoHXOJQ8fZTxoX" name="ページ1">
        <mxGraphModel dx="1250" dy="790" grid="1" gridSize="10" guides="1" tooltips="1" connect="1" arrows="1" fold="1" page="1" pageScale="1" pageWidth="1169" pageHeight="827" math="0" shadow="1">
            <root>
                <mxCell id="0"/>
                <mxCell id="1" parent="0"/>
                <mxCell id="40" value="" style="rounded=1;whiteSpace=wrap;html=1;dashed=1;labelBackgroundColor=none;fontFamily=Helvetica;fontSize=18;fontColor=#FFFFFF;strokeColor=#000000;strokeWidth=4;fillColor=none;gradientColor=none;" vertex="1" parent="1">
                    <mxGeometry x="45" y="280" width="230" height="290" as="geometry"/>
                </mxCell>
                <mxCell id="38" value="" style="rounded=1;whiteSpace=wrap;html=1;dashed=1;labelBackgroundColor=none;fontFamily=Helvetica;fontSize=18;fontColor=#FFFFFF;strokeColor=#000000;strokeWidth=4;fillColor=none;gradientColor=none;" vertex="1" parent="1">
                    <mxGeometry x="700" y="80" width="430" height="660" as="geometry"/>
                </mxCell>
                <mxCell id="2" value="&lt;font style=&quot;font-size: 18px&quot;&gt;Modem&lt;/font&gt;" style="verticalAlign=top;verticalLabelPosition=bottom;labelPosition=center;align=center;html=1;outlineConnect=0;gradientDirection=north;strokeWidth=2;shape=mxgraph.networks.modem;strokeColor=#000000;fontColor=#FFFFFF;" parent="1" vertex="1">
                    <mxGeometry x="60" y="170" width="100" height="30" as="geometry"/>
                </mxCell>
                <mxCell id="17" style="edgeStyle=none;shape=connector;rounded=1;html=1;exitX=1;exitY=0.5;exitDx=0;exitDy=0;exitPerimeter=0;labelBackgroundColor=default;fontFamily=Helvetica;fontSize=18;fontColor=#FFFFFF;endArrow=none;strokeColor=#000000;strokeWidth=4;entryX=0;entryY=0.5;entryDx=0;entryDy=0;entryPerimeter=0;" edge="1" parent="1" source="3" target="5">
                    <mxGeometry relative="1" as="geometry">
                        <mxPoint x="480" y="200" as="targetPoint"/>
                    </mxGeometry>
                </mxCell>
                <mxCell id="3" value="&lt;font style=&quot;font-size: 18px&quot;&gt;Router&lt;/font&gt;" style="verticalAlign=top;verticalLabelPosition=bottom;labelPosition=center;align=center;html=1;outlineConnect=0;gradientDirection=north;strokeWidth=2;shape=mxgraph.networks.router;strokeColor=#000000;fontColor=#FFFFFF;" parent="1" vertex="1">
                    <mxGeometry x="280" y="170" width="100" height="30" as="geometry"/>
                </mxCell>
                <mxCell id="4" value="&lt;font style=&quot;font-size: 18px&quot;&gt;&lt;br&gt;&lt;div style=&quot;text-align: justify&quot;&gt;&lt;span&gt;&lt;font color=&quot;#000000&quot;&gt;Internet&lt;/font&gt;&lt;/span&gt;&lt;/div&gt;&lt;/font&gt;" style="html=1;outlineConnect=0;gradientDirection=north;strokeWidth=2;shape=mxgraph.networks.cloud;strokeColor=#000000;fillColor=#FFFFFF;" parent="1" vertex="1">
                    <mxGeometry x="20" y="10" width="180" height="110" as="geometry"/>
                </mxCell>
                <mxCell id="5" value="&lt;font&gt;Hub&lt;/font&gt;" style="verticalAlign=top;verticalLabelPosition=bottom;labelPosition=center;align=center;html=1;outlineConnect=0;gradientDirection=north;strokeWidth=2;shape=mxgraph.networks.switch;fontSize=18;strokeColor=#000000;fontColor=#FFFFFF;" vertex="1" parent="1">
                    <mxGeometry x="490" y="170" width="100" height="30" as="geometry"/>
                </mxCell>
                <mxCell id="20" style="edgeStyle=none;shape=connector;rounded=1;html=1;entryX=0.1;entryY=1;entryDx=0;entryDy=0;entryPerimeter=0;labelBackgroundColor=default;fontFamily=Helvetica;fontSize=18;fontColor=#FFFFFF;endArrow=none;strokeColor=#000000;strokeWidth=4;" edge="1" parent="1" target="5">
                    <mxGeometry relative="1" as="geometry">
                        <mxPoint x="500" y="360" as="sourcePoint"/>
                    </mxGeometry>
                </mxCell>
                <mxCell id="26" style="edgeStyle=none;shape=connector;rounded=1;html=1;labelBackgroundColor=default;fontFamily=Helvetica;fontSize=18;fontColor=#FFFFFF;endArrow=none;strokeColor=#000000;strokeWidth=4;" edge="1" parent="1">
                    <mxGeometry relative="1" as="geometry">
                        <mxPoint x="500" y="360" as="targetPoint"/>
                        <mxPoint x="160" y="360" as="sourcePoint"/>
                    </mxGeometry>
                </mxCell>
                <mxCell id="27" style="edgeStyle=none;shape=connector;rounded=1;html=1;labelBackgroundColor=default;fontFamily=Helvetica;fontSize=18;fontColor=#FFFFFF;endArrow=none;strokeColor=#000000;strokeWidth=4;" edge="1" parent="1">
                    <mxGeometry relative="1" as="geometry">
                        <mxPoint x="160" y="358" as="targetPoint"/>
                        <mxPoint x="160" y="418" as="sourcePoint"/>
                    </mxGeometry>
                </mxCell>
                <mxCell id="10" value="PC①" style="verticalAlign=top;verticalLabelPosition=bottom;labelPosition=center;align=center;html=1;outlineConnect=0;gradientDirection=north;strokeWidth=2;shape=mxgraph.networks.pc;labelBackgroundColor=none;fontSize=18;strokeColor=#000000;" vertex="1" parent="1">
                    <mxGeometry x="110" y="414" width="100" height="70" as="geometry"/>
                </mxCell>
                <mxCell id="11" value="PC②" style="verticalAlign=top;verticalLabelPosition=bottom;labelPosition=center;align=center;html=1;outlineConnect=0;gradientDirection=north;strokeWidth=2;shape=mxgraph.networks.pc;labelBackgroundColor=none;fontSize=18;strokeColor=#000000;" vertex="1" parent="1">
                    <mxGeometry x="770" y="414" width="100" height="70" as="geometry"/>
                </mxCell>
                <mxCell id="13" value="" style="endArrow=none;html=1;fontSize=18;fontColor=#FFFFFF;entryX=0.5;entryY=1;entryDx=0;entryDy=0;entryPerimeter=0;strokeColor=#000000;strokeWidth=4;" edge="1" parent="1" source="2" target="4">
                    <mxGeometry width="50" height="50" relative="1" as="geometry">
                        <mxPoint x="450" y="400" as="sourcePoint"/>
                        <mxPoint x="500" y="350" as="targetPoint"/>
                    </mxGeometry>
                </mxCell>
                <mxCell id="14" value="" style="endArrow=none;html=1;fontSize=18;fontColor=#FFFFFF;strokeColor=#000000;strokeWidth=4;exitX=0;exitY=0.5;exitDx=0;exitDy=0;exitPerimeter=0;" edge="1" parent="1" source="3" target="2">
                    <mxGeometry width="50" height="50" relative="1" as="geometry">
                        <mxPoint x="120" y="180.00000000000006" as="sourcePoint"/>
                        <mxPoint x="120" y="130.00000000000006" as="targetPoint"/>
                    </mxGeometry>
                </mxCell>
                <mxCell id="21" style="edgeStyle=none;shape=connector;rounded=1;html=1;entryX=0.1;entryY=1;entryDx=0;entryDy=0;entryPerimeter=0;labelBackgroundColor=default;fontFamily=Helvetica;fontSize=18;fontColor=#FFFFFF;endArrow=none;strokeColor=#000000;strokeWidth=4;" edge="1" parent="1" target="5">
                    <mxGeometry relative="1" as="geometry">
                        <mxPoint x="500" y="360" as="sourcePoint"/>
                        <mxPoint x="500" y="200" as="targetPoint"/>
                    </mxGeometry>
                </mxCell>
                <mxCell id="34" value="Wired LAN" style="text;html=1;align=center;verticalAlign=middle;resizable=0;points=[];autosize=1;strokeColor=none;fillColor=none;fontSize=18;fontFamily=Helvetica;fontColor=#FFFFFF;" vertex="1" parent="1">
                    <mxGeometry x="110" y="280" width="100" height="30" as="geometry"/>
                </mxCell>
                <mxCell id="35" value="Wireless LAN" style="text;html=1;align=center;verticalAlign=middle;resizable=0;points=[];autosize=1;strokeColor=none;fillColor=none;fontSize=18;fontFamily=Helvetica;fontColor=#FFFFFF;" vertex="1" parent="1">
                    <mxGeometry x="855" y="80" width="120" height="30" as="geometry"/>
                </mxCell>
                <mxCell id="36" value="" style="group" vertex="1" connectable="0" parent="1">
                    <mxGeometry x="927.5" y="270" width="145" height="310" as="geometry"/>
                </mxCell>
                <mxCell id="12" value="Smart Phone" style="verticalAlign=top;verticalLabelPosition=bottom;labelPosition=center;align=center;html=1;outlineConnect=0;gradientDirection=north;strokeWidth=2;shape=mxgraph.networks.mobile;labelBackgroundColor=none;fontSize=18;strokeColor=#000000;" vertex="1" parent="36">
                    <mxGeometry x="47.5" y="50" width="50" height="100" as="geometry"/>
                </mxCell>
                <mxCell id="30" value="Note PC" style="verticalAlign=top;verticalLabelPosition=bottom;labelPosition=center;align=center;html=1;outlineConnect=0;gradientDirection=north;strokeWidth=2;shape=mxgraph.networks.laptop;labelBackgroundColor=none;fontFamily=Helvetica;fontSize=18;strokeColor=#000000;" vertex="1" parent="36">
                    <mxGeometry x="22.5" y="200" width="100" height="55" as="geometry"/>
                </mxCell>
                <mxCell id="31" value="" style="rounded=0;whiteSpace=wrap;html=1;labelBackgroundColor=none;fontFamily=Helvetica;fontSize=18;fontColor=#FFFFFF;strokeColor=#000000;fillColor=none;gradientColor=none;strokeWidth=8;dashed=1;" vertex="1" parent="36">
                    <mxGeometry y="40" width="145" height="270" as="geometry"/>
                </mxCell>
                <mxCell id="32" value="複数台" style="text;html=1;align=center;verticalAlign=middle;resizable=0;points=[];autosize=1;strokeColor=none;fillColor=none;fontSize=18;fontFamily=Helvetica;fontColor=#FFFFFF;container=1;" vertex="1" parent="36">
                    <mxGeometry x="37.5" width="70" height="30" as="geometry"/>
                </mxCell>
            </root>
        </mxGraphModel>
    </diagram>
</mxfile>